<?xml version="1.0" standalone="no"?><!DOCTYPE svg PUBLIC "-//W3C//DTD SVG 1.1//EN" "http://www.w3.org/Graphics/SVG/1.1/DTD/svg11.dtd"><svg t="1596984415619" class="icon" viewBox="0 0 1025 1024" version="1.1" xmlns="http://www.w3.org/2000/svg" p-id="3176" xmlns:xlink="http://www.w3.org/1999/xlink" width="200.1953125" height="200"><defs><style type="text/css"></style></defs><path d="M928.6016 620.8c-19.2 0-32 12.8-32 32V832c0 32-25.6 64-64 64H192.6016c-32 0-64-32-64-64v-179.2c0-19.2-12.8-32-32-32s-32 12.8-32 32V832c0 70.4 57.6 128 128 128h640c70.4 0 128-57.6 128-128v-179.2c0-19.2-12.8-32-32-32zM1024.6016 435.2L960.6016 192c-19.2-70.4-57.6-128-128-128H192.6016c-70.4 0-108.8 57.6-128 128L0.6016 435.2C-5.7984 505.6 39.0016 576 128.6016 576h57.6s32 0 32-25.6c0-57.6 44.8-102.4 96-102.4s96 44.8 96 96c0 32 32 32 32 32h140.8s25.6 0 25.6-25.6c0-51.2 44.8-96 96-96s96 44.8 96 96c6.4 25.6 32 25.6 32 25.6h64c89.6 0 134.4-70.4 128-140.8zM871.0016 512h-6.4c-12.8-70.4-76.8-128-153.6-128s-140.8 57.6-160 128H474.2016c-19.2-70.4-83.2-128-160-128s-140.8 57.6-153.6 128h-6.4C58.2016 512 64.6016 460.8 71.0016 409.6l44.8-185.6C135.0016 153.6 167.0016 128 231.0016 128h563.2c64 0 96 25.6 108.8 102.4l44.8 185.6c12.8 44.8 19.2 96-76.8 96z" fill="#515151" p-id="3177"></path></svg>